<svg xmlns="http://www.w3.org/2000/svg" xmlns:xlink="http://www.w3.org/1999/xlink" width="500" zoomAndPan="magnify" viewBox="0 0 375 374.999991" height="500" preserveAspectRatio="xMidYMid meet" version="1.0"><defs><clipPath id="425fde0e87"><path d="M 5 124.671875 L 371 124.671875 L 371 250 L 5 250 Z M 5 124.671875 " clip-rule="nonzero"/></clipPath></defs><path fill="#ffffff" d="M 201.976562 164.722656 C 203.859375 164.839844 206.058594 164.96875 208.410156 165.050781 C 209.59375 165.09375 210.808594 165.167969 212.050781 165.179688 C 213.292969 165.210938 214.546875 165.238281 215.800781 165.28125 C 217.058594 165.308594 218.34375 165.265625 219.554688 165.351562 C 220.765625 165.421875 221.964844 165.4375 223.136719 165.523438 C 224.292969 165.679688 225.40625 165.808594 226.472656 165.921875 C 227.003906 165.964844 227.5 166.09375 228 166.195312 C 228.484375 166.28125 228.972656 166.378906 229.429688 166.464844 C 230.339844 166.652344 231.195312 166.777344 231.925781 167.007812 C 232.667969 167.207031 233.324219 167.378906 233.851562 167.519531 C 234.394531 167.664062 234.808594 167.761719 235.09375 167.835938 C 235.378906 167.921875 235.535156 167.964844 235.535156 167.964844 C 235.535156 167.964844 235.390625 167.890625 235.121094 167.761719 C 234.851562 167.648438 234.449219 167.476562 233.949219 167.25 C 233.4375 167.050781 232.808594 166.792969 232.109375 166.492188 C 231.410156 166.164062 230.570312 165.9375 229.640625 165.664062 C 228.730469 165.421875 227.746094 165.050781 226.660156 164.867188 C 225.589844 164.667969 224.449219 164.453125 223.265625 164.253906 C 222.078125 164.125 220.851562 164.039062 219.597656 163.953125 C 218.34375 163.855469 217.101562 163.867188 215.832031 163.824219 C 214.574219 163.8125 213.320312 163.796875 212.078125 163.78125 C 210.835938 163.769531 209.625 163.78125 208.441406 163.78125 C 206.070312 163.78125 203.875 163.824219 201.992188 163.882812 C 198.210938 163.996094 195.683594 164.183594 195.683594 164.183594 C 195.683594 164.183594 198.195312 164.480469 201.976562 164.722656 Z M 217.199219 162.753906 C 221.351562 162.769531 225.445312 163.339844 229.441406 164.46875 C 238.289062 166.9375 244.695312 169.976562 244.695312 169.976562 L 196.296875 173.085938 C 192.21875 173.355469 188.152344 172.527344 184.5 170.703125 L 168.046875 162.46875 L 217.199219 162.753906 " fill-opacity="1" fill-rule="nonzero"/><path fill="#ffffff" d="M 101.089844 173.328125 C 104.96875 173.058594 109.492188 172.6875 114.328125 172.242188 C 119.179688 171.785156 124.34375 171.300781 129.511719 170.816406 C 132.09375 170.546875 134.660156 170.289062 137.214844 170.03125 C 139.753906 169.773438 142.238281 169.460938 144.664062 169.203125 C 145.875 169.0625 147.058594 168.917969 148.230469 168.789062 C 149.386719 168.648438 150.527344 168.503906 151.597656 168.417969 C 153.765625 168.261719 155.835938 168.292969 157.730469 168.476562 C 158.671875 168.605469 159.601562 168.703125 160.441406 168.875 C 160.871094 168.960938 161.300781 169.03125 161.699219 169.117188 C 162.097656 169.21875 162.496094 169.320312 162.867188 169.402344 C 163.625 169.574219 164.324219 169.847656 164.980469 170.019531 C 165.621094 170.21875 166.207031 170.460938 166.734375 170.644531 C 167.277344 170.832031 167.734375 171.046875 168.132812 171.214844 C 168.546875 171.386719 168.890625 171.542969 169.144531 171.6875 C 169.703125 171.945312 169.988281 172.113281 169.988281 172.113281 C 169.988281 172.113281 169.730469 171.914062 169.21875 171.585938 C 168.960938 171.402344 168.632812 171.203125 168.246094 170.988281 C 167.875 170.757812 167.433594 170.488281 166.921875 170.261719 C 166.394531 170.019531 165.851562 169.703125 165.195312 169.433594 C 164.550781 169.175781 163.894531 168.863281 163.125 168.621094 C 161.613281 168.0625 159.859375 167.605469 157.902344 167.25 C 155.949219 166.921875 153.792969 166.734375 151.511719 166.808594 C 150.355469 166.835938 149.214844 166.921875 148.042969 167.007812 C 146.886719 167.105469 145.691406 167.207031 144.476562 167.292969 C 142.050781 167.507812 139.539062 167.691406 137 167.933594 C 134.460938 168.175781 131.878906 168.417969 129.296875 168.648438 C 126.714844 168.917969 124.132812 169.191406 121.589844 169.445312 C 119.050781 169.703125 116.554688 170.046875 114.144531 170.332031 C 109.308594 170.929688 104.796875 171.53125 100.945312 172.085938 C 93.242188 173.183594 88.121094 174.097656 88.121094 174.097656 C 88.121094 174.097656 93.328125 173.914062 101.089844 173.328125 Z M 60.152344 181.589844 C 68.429688 175.726562 77.933594 172.144531 88.019531 171.101562 L 149.371094 164.824219 C 156.191406 164.125 162.984375 165.265625 169.203125 168.175781 C 172.058594 169.519531 174.640625 170.972656 176.609375 172.171875 C 177.25 172.570312 177.59375 173.328125 177.449219 174.070312 C 177.308594 174.8125 176.722656 175.398438 175.980469 175.523438 L 44.917969 198.738281 C 48.027344 191.621094 54.074219 185.882812 60.152344 181.589844 " fill-opacity="1" fill-rule="nonzero"/><path fill="#ffffff" d="M 182.246094 205.472656 C 184.140625 205.386719 185.898438 206.144531 187.125 207.414062 C 185.996094 206.585938 184.570312 206.128906 183.058594 206.199219 C 179.546875 206.386719 176.851562 209.367188 177.035156 212.878906 C 177.109375 214.390625 177.707031 215.761719 178.648438 216.800781 C 177.25 215.703125 176.324219 214.046875 176.222656 212.136719 C 176.050781 208.640625 178.734375 205.660156 182.246094 205.472656 " fill-opacity="1" fill-rule="nonzero"/><path fill="#ffffff" d="M 208.226562 202.707031 C 210.136719 202.605469 211.894531 203.363281 213.121094 204.632812 C 211.976562 203.804688 210.566406 203.347656 209.054688 203.433594 C 205.542969 203.605469 202.847656 206.601562 203.019531 210.109375 C 203.089844 211.621094 203.703125 212.976562 204.628906 214.035156 C 203.246094 212.933594 202.320312 211.265625 202.21875 209.367188 C 202.035156 205.859375 204.730469 202.875 208.226562 202.707031 " fill-opacity="1" fill-rule="nonzero"/><path fill="#ffffff" d="M 156.25 208.253906 C 158.160156 208.15625 159.914062 208.910156 161.140625 210.195312 C 160 209.355469 158.589844 208.898438 157.074219 208.984375 C 153.566406 209.15625 150.855469 212.152344 151.039062 215.660156 C 151.113281 217.171875 151.726562 218.527344 152.652344 219.585938 C 151.269531 218.484375 150.328125 216.832031 150.226562 214.917969 C 150.054688 211.410156 152.753906 208.425781 156.25 208.253906 " fill-opacity="1" fill-rule="nonzero"/><path fill="#ffffff" d="M 130.265625 211.023438 C 132.164062 210.921875 133.917969 211.695312 135.144531 212.964844 C 134.003906 212.136719 132.59375 211.679688 131.078125 211.75 C 127.570312 211.9375 124.875 214.917969 125.042969 218.429688 C 125.128906 219.957031 125.730469 221.3125 126.671875 222.351562 C 125.273438 221.253906 124.34375 219.597656 124.246094 217.6875 C 124.058594 214.191406 126.757812 211.207031 130.265625 211.023438 " fill-opacity="1" fill-rule="nonzero"/><g clip-path="url(#425fde0e87)"><path fill="#ffffff" d="M 130.964844 224.804688 C 135.074219 224.605469 138.242188 221.097656 138.027344 216.988281 C 137.8125 212.878906 134.320312 209.710938 130.210938 209.925781 C 126.101562 210.140625 122.933594 213.632812 123.148438 217.742188 C 123.347656 221.851562 126.855469 225.019531 130.964844 224.804688 Z M 156.949219 222.039062 C 161.070312 221.824219 164.222656 218.328125 164.023438 214.21875 C 163.808594 210.109375 160.300781 206.941406 156.191406 207.15625 C 152.082031 207.355469 148.929688 210.867188 149.128906 214.976562 C 149.34375 219.085938 152.839844 222.253906 156.949219 222.039062 Z M 182.941406 219.257812 C 187.050781 219.054688 190.21875 215.546875 190.007812 211.4375 C 189.792969 207.328125 186.296875 204.160156 182.1875 204.375 C 178.078125 204.589844 174.910156 208.085938 175.125 212.195312 C 175.324219 216.300781 178.835938 219.46875 182.941406 219.257812 Z M 208.9375 216.488281 C 213.046875 216.273438 216.203125 212.777344 216 208.65625 C 215.789062 204.546875 212.277344 201.394531 208.167969 201.59375 C 204.058594 201.804688 200.90625 205.316406 201.105469 209.425781 C 201.320312 213.535156 204.832031 216.6875 208.9375 216.488281 Z M 166.734375 153.46875 C 172.570312 152.726562 178.234375 152.382812 183.683594 152.324219 C 183.613281 152.253906 183.542969 152.183594 183.472656 152.097656 C 183.257812 151.910156 183.015625 151.613281 182.800781 151.457031 C 182.574219 151.285156 182.34375 151.097656 182.101562 150.898438 C 181.886719 150.699219 181.585938 150.527344 181.289062 150.328125 C 180.988281 150.140625 180.6875 149.898438 180.347656 149.742188 C 179.035156 148.988281 177.363281 148.402344 175.507812 148.128906 C 175.039062 148.015625 174.554688 148.03125 174.070312 147.988281 L 173.699219 147.972656 L 173.597656 147.960938 C 173.597656 147.960938 173.554688 147.960938 173.570312 147.960938 L 173.3125 147.960938 C 173.027344 147.960938 172.757812 147.960938 172.46875 147.960938 C 171.34375 147.972656 170.1875 147.988281 168.988281 148.003906 C 166.605469 148.089844 164.109375 148.101562 161.5 148.273438 C 158.902344 148.402344 156.207031 148.53125 153.480469 148.757812 C 150.753906 148.957031 147.972656 149.15625 145.203125 149.445312 C 142.4375 149.730469 139.65625 149.941406 136.945312 150.285156 C 134.21875 150.613281 131.535156 150.925781 128.941406 151.226562 C 126.34375 151.539062 123.847656 151.925781 121.476562 152.253906 C 119.109375 152.582031 116.855469 152.894531 114.785156 153.195312 C 106.523438 154.523438 101.015625 155.421875 101.015625 155.421875 C 101.015625 155.421875 106.496094 154.308594 114.699219 152.640625 C 116.753906 152.253906 118.980469 151.855469 121.347656 151.414062 C 123.703125 151 126.1875 150.511719 128.769531 150.101562 C 130.964844 149.742188 133.234375 149.386719 135.53125 149.015625 C 136.171875 148.089844 137 146.488281 137.300781 144.320312 C 123.632812 144.035156 105.070312 143.09375 90.160156 142.238281 C 88.675781 142.152344 87.25 142.910156 86.492188 144.207031 C 85.738281 145.503906 85.765625 147.117188 86.5625 148.375 C 88.875 151.996094 91.601562 156.621094 94.125 161.726562 C 130.507812 155.90625 166.734375 153.46875 166.734375 153.46875 Z M 146.1875 147.144531 C 146.105469 146.945312 146.03125 146.734375 145.917969 146.503906 C 145.816406 146.277344 145.703125 146.035156 145.574219 145.789062 C 145.460938 145.546875 145.332031 145.292969 145.203125 145.035156 C 145.0625 144.777344 144.90625 144.519531 144.761719 144.265625 C 144.605469 144.007812 144.464844 143.75 144.292969 143.507812 C 144.164062 143.308594 144.050781 143.121094 143.921875 142.9375 L 143.605469 143.039062 C 143.722656 143.222656 143.835938 143.40625 143.964844 143.609375 C 144.121094 143.851562 144.261719 144.105469 144.40625 144.363281 C 144.5625 144.621094 144.707031 144.878906 144.863281 145.132812 C 144.992188 145.378906 145.132812 145.632812 145.261719 145.875 C 145.390625 146.105469 145.53125 146.347656 145.660156 146.5625 C 145.789062 146.773438 145.875 146.988281 145.988281 147.1875 C 146.03125 147.304688 146.089844 147.390625 146.148438 147.488281 C 146.203125 147.488281 146.261719 147.472656 146.316406 147.472656 C 146.273438 147.359375 146.230469 147.261719 146.1875 147.144531 Z M 148.816406 127.769531 C 149.585938 127.8125 150.355469 127.855469 151.125 127.914062 C 152.652344 128 154.136719 128.085938 155.59375 128.183594 C 157.046875 128.242188 158.460938 128.382812 159.828125 128.527344 C 161.183594 128.65625 162.511719 128.785156 163.78125 128.898438 C 165.050781 129.011719 166.25 129.199219 167.40625 129.324219 C 168.5625 129.453125 169.644531 129.582031 170.671875 129.695312 C 172.726562 129.953125 174.511719 130.238281 175.980469 130.4375 C 177.449219 130.667969 178.605469 130.839844 179.390625 130.964844 C 180.191406 131.09375 180.601562 131.167969 180.601562 131.167969 C 180.601562 131.167969 178.949219 130.753906 176.039062 130.152344 C 174.566406 129.882812 172.800781 129.527344 170.757812 129.167969 C 168.703125 128.839844 166.40625 128.414062 163.882812 128.097656 C 162.613281 127.941406 161.285156 127.769531 159.929688 127.597656 C 158.558594 127.429688 157.148438 127.242188 155.691406 127.128906 C 154.222656 127 152.722656 126.871094 151.199219 126.730469 C 150.425781 126.65625 149.65625 126.585938 148.871094 126.527344 C 148.085938 126.5 147.300781 126.472656 146.503906 126.445312 C 143.308594 126.34375 140.011719 126.128906 136.644531 126.273438 C 134.976562 126.300781 133.277344 126.328125 131.578125 126.359375 L 130.9375 126.371094 L 130.265625 126.429688 L 128.996094 126.558594 L 127.742188 126.6875 L 127.097656 126.742188 C 126.886719 126.773438 126.671875 126.816406 126.457031 126.855469 C 122.988281 127.484375 119.765625 128.398438 116.511719 129.183594 C 113.257812 129.996094 110.0625 130.796875 106.980469 131.566406 C 103.886719 132.335938 100.902344 133.078125 98.0625 133.792969 C 95.238281 134.492188 92.554688 135.160156 90.089844 135.773438 C 85.136719 136.988281 81.027344 138.085938 78.144531 138.8125 C 75.265625 139.570312 73.621094 140 73.621094 140 C 73.621094 140 75.292969 139.671875 78.203125 139.085938 C 81.113281 138.472656 85.28125 137.644531 90.273438 136.558594 C 92.757812 136.015625 95.46875 135.445312 98.320312 134.820312 C 101.175781 134.21875 104.183594 133.535156 107.265625 132.777344 C 110.378906 132.035156 113.574219 131.28125 116.824219 130.496094 C 120.066406 129.738281 123.417969 128.855469 126.640625 128.296875 C 126.84375 128.253906 127.042969 128.210938 127.257812 128.171875 L 127.882812 128.113281 L 129.152344 127.96875 L 130.410156 127.84375 L 131.007812 127.769531 L 131.636719 127.757812 C 133.320312 127.714844 135.003906 127.671875 136.671875 127.628906 C 139.996094 127.457031 143.277344 127.628906 146.445312 127.699219 C 147.246094 127.726562 148.03125 127.742188 148.816406 127.769531 Z M 91.042969 161.5 C 91.042969 161.5 90.929688 161.171875 90.703125 160.601562 C 90.472656 160.042969 90.171875 159.230469 89.761719 158.273438 C 89.546875 157.789062 89.347656 157.261719 89.074219 156.734375 C 88.804688 156.191406 88.53125 155.621094 88.234375 155.035156 C 87.933594 154.464844 87.648438 153.851562 87.320312 153.253906 C 86.976562 152.652344 86.636719 152.054688 86.277344 151.457031 C 85.921875 150.855469 85.578125 150.242188 85.207031 149.671875 C 84.824219 149.101562 84.453125 148.542969 84.09375 148.003906 C 83.753906 147.445312 83.367188 146.945312 83.011719 146.460938 C 82.65625 145.992188 82.3125 145.535156 82 145.105469 C 81.355469 144.292969 80.785156 143.621094 80.386719 143.164062 C 79.988281 142.707031 79.742188 142.464844 79.742188 142.464844 C 79.742188 142.464844 79.929688 142.765625 80.273438 143.265625 C 80.628906 143.75 81.085938 144.492188 81.671875 145.347656 C 82.226562 146.21875 82.898438 147.230469 83.566406 148.34375 C 83.910156 148.902344 84.253906 149.472656 84.609375 150.042969 C 84.980469 150.613281 85.308594 151.226562 85.652344 151.824219 C 86.007812 152.410156 86.363281 153.011719 86.707031 153.59375 C 87.035156 154.195312 87.363281 154.78125 87.675781 155.351562 C 87.992188 155.90625 88.304688 156.449219 88.589844 156.976562 C 88.902344 157.476562 89.144531 157.988281 89.390625 158.445312 C 89.859375 159.375 90.289062 160.128906 90.574219 160.65625 C 90.871094 161.1875 91.042969 161.5 91.042969 161.5 Z M 239.558594 175.667969 C 238.6875 177.265625 237.332031 180.347656 237.433594 183.871094 C 237.546875 183.859375 237.644531 183.84375 237.746094 183.84375 C 245.921875 183.101562 254.082031 182.375 262.128906 181.660156 C 263.3125 181.546875 264.5 181.445312 265.667969 181.347656 C 265.980469 177.578125 267.195312 174.484375 268.25 172.429688 C 267.722656 172.484375 267.195312 172.542969 266.667969 172.601562 C 263.957031 172.898438 261.246094 173.183594 258.519531 173.46875 C 255.808594 173.796875 253.085938 174.113281 250.375 174.425781 C 246.761719 174.839844 243.167969 175.253906 239.558594 175.667969 Z M 217.941406 178.308594 C 216.414062 178.476562 214.902344 178.691406 213.390625 178.878906 C 212.664062 180.289062 211.691406 182.929688 212.234375 186.269531 C 212.621094 186.226562 212.992188 186.183594 213.375 186.125 C 220.609375 185.457031 227.929688 184.757812 235.261719 184.070312 C 235.136719 180.820312 236.078125 177.9375 236.976562 175.96875 C 236.003906 176.066406 235.050781 176.179688 234.078125 176.296875 C 228.671875 176.964844 223.292969 177.636719 217.941406 178.308594 Z M 202.078125 180.375 C 198.195312 180.890625 194.359375 181.417969 190.5625 181.917969 C 190.007812 183.488281 189.277344 186.425781 190.390625 188.851562 C 196.796875 188.09375 203.390625 187.28125 210.082031 186.511719 C 209.609375 183.515625 210.179688 180.976562 210.867188 179.207031 C 207.910156 179.589844 204.988281 179.992188 202.078125 180.375 Z M 171.644531 184.671875 C 171.445312 184.699219 171.257812 184.726562 171.058594 184.757812 C 170.558594 186.054688 169.929688 188.550781 171.144531 191.191406 C 176.621094 190.519531 182.316406 189.835938 188.164062 189.121094 C 187.296875 186.683594 187.664062 184.070312 188.179688 182.246094 C 187.652344 182.316406 187.109375 182.386719 186.597656 182.460938 C 181.515625 183.214844 176.535156 183.957031 171.644531 184.671875 Z M 157.347656 186.882812 C 155.976562 187.109375 154.621094 187.324219 153.28125 187.554688 C 152.9375 189.121094 152.738281 191.605469 153.78125 193.359375 C 158.261719 192.789062 162.953125 192.203125 167.832031 191.589844 C 168.191406 191.546875 168.546875 191.503906 168.902344 191.460938 C 167.976562 189.023438 168.21875 186.726562 168.660156 185.113281 C 167.234375 185.3125 165.808594 185.527344 164.394531 185.726562 C 162.027344 186.113281 159.671875 186.496094 157.347656 186.882812 Z M 140.582031 189.621094 C 139.511719 189.820312 138.457031 190.019531 137.414062 190.207031 C 137.398438 190.207031 137.398438 190.207031 137.398438 190.207031 C 137.101562 191.121094 136.730469 193.074219 137.929688 195.386719 C 141.136719 194.957031 144.546875 194.515625 148.128906 194.058594 C 149.242188 193.929688 150.355469 193.789062 151.496094 193.644531 C 150.667969 191.691406 150.742188 189.507812 150.996094 187.921875 C 148.570312 188.324219 146.175781 188.722656 143.835938 189.109375 C 142.738281 189.277344 141.667969 189.449219 140.582031 189.621094 Z M 123.519531 192.773438 C 123.246094 193.402344 122.777344 195.058594 123.945312 197.070312 L 123.558594 197.296875 C 125.972656 196.96875 128.625 196.613281 131.492188 196.242188 C 132.835938 196.054688 134.234375 195.871094 135.660156 195.683594 C 134.816406 193.6875 134.847656 191.917969 135.058594 190.648438 C 133.777344 190.878906 132.492188 191.121094 131.238281 191.347656 C 128.582031 191.832031 126.015625 192.316406 123.519531 192.773438 Z M 288.597656 179.378906 C 289.550781 179.320312 290.507812 179.261719 291.449219 179.207031 C 293.332031 179.09375 295.203125 178.992188 297.042969 178.878906 C 298.085938 178.820312 299.082031 178.765625 300.109375 178.707031 C 300.894531 174.3125 302.652344 170.917969 304.0625 168.746094 C 302.308594 168.917969 300.539062 169.089844 298.769531 169.261719 C 293.519531 169.789062 288.195312 170.332031 282.832031 170.886719 C 278.878906 171.273438 274.898438 171.703125 270.90625 172.144531 C 269.933594 173.753906 268.292969 177.007812 267.867188 181.160156 C 273.945312 180.632812 279.921875 180.121094 285.742188 179.621094 C 286.699219 179.535156 287.65625 179.464844 288.597656 179.378906 Z M 337.308594 171.203125 C 337.136719 171.230469 336.980469 171.257812 336.808594 171.289062 C 336.980469 171.257812 337.136719 171.230469 337.308594 171.203125 Z M 327.71875 177.195312 C 329.261719 177.109375 330.757812 177.039062 332.226562 176.953125 C 332.714844 176.9375 333.167969 176.910156 333.640625 176.878906 C 334.039062 174.667969 334.882812 172.84375 335.695312 171.488281 C 333.726562 171.84375 331.886719 172.15625 330.171875 172.457031 C 325.449219 173.285156 321.726562 173.855469 319.1875 174.253906 C 316.648438 174.65625 315.304688 174.867188 315.304688 174.867188 C 315.304688 174.867188 320.65625 173.742188 330.03125 171.773438 C 334.070312 170.917969 338.847656 169.890625 344.253906 168.675781 C 345.097656 167.148438 345.980469 165.824219 346.753906 164.808594 C 345.769531 164.894531 344.785156 164.980469 343.785156 165.066406 C 334.410156 165.878906 324.539062 166.808594 314.320312 167.75 C 311.882812 167.992188 309.414062 168.234375 306.929688 168.460938 C 305.71875 170.046875 303.351562 173.597656 302.335938 178.578125 C 304.207031 178.476562 306.0625 178.378906 307.886719 178.265625 C 314.921875 177.894531 321.585938 177.523438 327.71875 177.195312 Z M 336.535156 176.78125 C 338.261719 176.753906 339.933594 176.722656 341.542969 176.695312 C 341.832031 174.296875 342.601562 172.058594 343.542969 170.074219 C 341.871094 170.386719 340.273438 170.675781 338.734375 170.945312 C 338.007812 171.84375 336.507812 173.941406 335.878906 176.808594 C 336.09375 176.792969 336.324219 176.792969 336.535156 176.78125 Z M 344.5 176.652344 C 345.539062 176.625 346.554688 176.609375 347.539062 176.59375 C 347.835938 173.484375 349.164062 170.714844 350.375 168.789062 C 349.292969 168.992188 348.238281 169.203125 347.195312 169.390625 C 346.882812 169.445312 346.566406 169.519531 346.265625 169.574219 C 345.125 171.601562 344.113281 174.054688 343.742188 176.652344 C 344 176.652344 344.242188 176.652344 344.5 176.652344 Z M 357.4375 176.425781 C 357.625 176.425781 357.796875 176.453125 357.96875 176.453125 C 358.75 172.242188 360.949219 168.503906 362.574219 166.179688 C 360.90625 166.59375 359.25 166.980469 357.640625 167.308594 C 356.199219 167.621094 354.8125 167.90625 353.429688 168.175781 C 352.332031 169.617188 350.164062 172.84375 349.71875 176.550781 C 352.574219 176.507812 355.171875 176.453125 357.4375 176.425781 Z M 365.457031 163.269531 L 365.273438 163.269531 C 365.273438 163.269531 365.273438 163.269531 365.242188 163.269531 L 365.128906 163.285156 L 364.746094 163.3125 L 363.945312 163.367188 C 361.820312 163.539062 359.652344 163.726562 357.4375 163.898438 C 354.929688 164.109375 352.359375 164.339844 349.75 164.554688 C 349.191406 165.210938 348.207031 166.40625 347.179688 168.019531 C 350.347656 167.292969 353.714844 166.507812 357.238281 165.625 C 359.050781 165.167969 360.90625 164.695312 362.789062 164.167969 C 363.730469 163.910156 364.671875 163.640625 365.613281 163.339844 C 365.671875 163.3125 365.742188 163.285156 365.8125 163.269531 C 365.699219 163.269531 365.585938 163.253906 365.457031 163.269531 Z M 5.09375 240.359375 C 5.09375 240.316406 5.09375 240.285156 5.109375 240.242188 C 5.410156 238.304688 7.0625 236.890625 9.019531 236.863281 L 9.390625 236.863281 C 9.390625 236.863281 9.390625 236.875 9.390625 236.875 C 9.988281 236.890625 11.316406 236.917969 13.269531 236.960938 C 15.980469 237.003906 19.832031 237.105469 24.484375 237.132812 C 29.121094 237.191406 34.527344 237.203125 40.320312 237.203125 C 43.21875 237.203125 46.214844 237.191406 49.253906 237.191406 C 52.292969 237.164062 55.390625 237.148438 58.46875 237.132812 C 60.027344 237.105469 61.566406 237.089844 63.109375 237.078125 C 63.863281 237.078125 64.675781 237.046875 65.390625 237.0625 C 66.175781 237.0625 66.875 237.121094 67.585938 237.203125 C 67.945312 237.277344 68.316406 237.320312 68.65625 237.390625 L 69.726562 237.648438 C 70.457031 237.847656 71.167969 238.03125 71.898438 238.230469 C 73.335938 238.617188 74.765625 239.003906 76.164062 239.375 C 76.804688 239.558594 77.761719 239.757812 77.789062 239.929688 C 77.816406 240 77.890625 240.058594 77.875 240.144531 L 77.902344 240.203125 L 77.890625 240.230469 L 77.859375 240.488281 C 77.816406 240.5 77.71875 240.6875 77.5625 240.742188 C 76.25 241.214844 74.976562 241.671875 73.722656 242.113281 C 72.480469 242.554688 71.242188 243.011719 70.097656 243.398438 C 69.800781 243.496094 69.5 243.582031 69.214844 243.683594 C 68.914062 243.769531 68.628906 243.8125 68.359375 243.882812 C 67.789062 244.023438 67.214844 244.097656 66.660156 244.183594 C 66.105469 244.253906 65.53125 244.265625 65.003906 244.308594 C 64.449219 244.324219 63.90625 244.324219 63.378906 244.339844 C 62.324219 244.382812 61.324219 244.410156 60.382812 244.425781 C 58.5 244.480469 56.84375 244.523438 55.503906 244.566406 C 52.792969 244.667969 51.25 244.710938 51.25 244.710938 C 51.25 244.710938 52.792969 244.765625 55.503906 244.851562 C 56.84375 244.882812 58.5 244.925781 60.382812 244.964844 C 61.324219 244.996094 62.324219 245.007812 63.378906 245.039062 C 63.90625 245.050781 64.449219 245.066406 65.003906 245.082031 C 65.5625 245.050781 66.148438 245.066406 66.746094 245.007812 C 67.332031 244.9375 67.929688 244.894531 68.542969 244.765625 C 69.171875 244.667969 69.769531 244.496094 70.371094 244.324219 C 71.609375 243.96875 72.796875 243.539062 74.078125 243.140625 C 75.335938 242.726562 76.648438 242.296875 77.976562 241.871094 C 78.472656 241.671875 78.875 241.3125 79.074219 240.644531 L 79.117188 240.386719 L 79.117188 240.328125 L 79.128906 240.285156 C 79.128906 240.085938 79.128906 240.203125 79.128906 240.144531 L 79.085938 239.945312 C 79.074219 239.660156 78.929688 239.417969 78.789062 239.1875 C 78.703125 239.074219 78.574219 238.960938 78.445312 238.847656 C 78.386719 238.804688 78.304688 238.746094 78.261719 238.71875 L 78.144531 238.660156 L 78.015625 238.601562 L 77.960938 238.574219 C 77.976562 238.574219 77.761719 238.503906 77.832031 238.53125 L 77.804688 238.519531 L 77.53125 238.445312 C 77.191406 238.347656 76.847656 238.246094 76.503906 238.148438 C 75.105469 237.746094 73.695312 237.347656 72.253906 236.933594 C 71.539062 236.71875 70.828125 236.519531 70.097656 236.304688 L 68.941406 236.035156 C 68.570312 235.949219 68.171875 235.890625 67.789062 235.820312 C 66.988281 235.722656 66.160156 235.648438 65.417969 235.648438 C 64.605469 235.621094 63.878906 235.648438 63.09375 235.648438 C 61.550781 235.664062 60.011719 235.664062 58.457031 235.679688 C 55.375 235.722656 52.277344 235.75 49.238281 235.792969 C 46.199219 235.835938 43.203125 235.890625 40.308594 235.933594 C 34.515625 236.035156 29.105469 236.175781 24.46875 236.304688 C 19.832031 236.433594 15.964844 236.605469 13.269531 236.691406 C 11.316406 236.761719 9.988281 236.820312 9.390625 236.847656 C 10.53125 225.335938 15.023438 209.011719 30.976562 206.300781 C 39.179688 183.800781 57.242188 172.785156 69.914062 167.636719 C 71.324219 164.296875 74.609375 154.308594 70.285156 141.023438 C 69.957031 141.011719 69.628906 140.984375 69.328125 140.96875 C 69 140.941406 68.730469 140.683594 68.699219 140.355469 C 68.671875 140.027344 68.886719 139.710938 69.214844 139.640625 L 122.847656 126.316406 C 125.515625 125.660156 128.339844 125.257812 131.09375 125.144531 C 140.867188 124.773438 164.953125 124.601562 185.039062 130.636719 C 185.226562 130.695312 185.339844 130.851562 185.339844 131.039062 C 185.324219 131.222656 185.210938 131.378906 185.039062 131.421875 L 144.832031 142.679688 C 145.660156 143.964844 146.632812 145.546875 147.558594 147.304688 C 149.472656 147.0625 151.398438 146.832031 153.28125 146.617188 C 156.019531 146.277344 158.714844 146.035156 161.328125 145.789062 C 163.9375 145.519531 166.492188 145.390625 168.902344 145.207031 C 170.101562 145.148438 171.273438 145.089844 172.398438 145.050781 C 172.683594 145.019531 172.957031 145.019531 173.226562 145.007812 L 173.441406 144.992188 L 174.125 144.992188 C 174.726562 145.019531 175.308594 144.992188 175.878906 145.089844 C 178.164062 145.335938 180.21875 145.960938 181.875 146.832031 C 182.316406 147.019531 182.6875 147.273438 183.058594 147.503906 C 183.441406 147.730469 183.800781 147.917969 184.140625 148.203125 C 184.484375 148.457031 184.8125 148.703125 185.125 148.945312 C 185.453125 149.1875 185.625 149.386719 185.867188 149.601562 C 186.097656 149.8125 186.308594 150 186.511719 150.183594 L 186.652344 150.328125 L 186.722656 150.414062 L 186.867188 150.570312 C 186.96875 150.683594 187.050781 150.785156 187.136719 150.882812 C 187.496094 151.269531 187.78125 151.640625 188.007812 151.941406 C 188.109375 152.070312 188.207031 152.210938 188.292969 152.355469 C 222.777344 153.109375 248.390625 165.695312 256.335938 170.101562 C 256.9375 170.046875 257.535156 169.976562 258.121094 169.902344 C 260.847656 169.617188 263.570312 169.347656 266.28125 169.0625 C 271.71875 168.503906 277.125 167.90625 282.488281 167.40625 C 287.855469 166.894531 293.191406 166.394531 298.457031 165.910156 C 303.71875 165.464844 308.929688 165.023438 314.035156 164.582031 C 324.28125 163.726562 334.183594 163.011719 343.585938 162.371094 C 348.277344 162.042969 352.84375 161.769531 357.269531 161.5 C 359.492188 161.371094 361.664062 161.257812 363.800781 161.128906 L 364.601562 161.101562 L 364.988281 161.070312 L 365.457031 161.070312 C 366 161.070312 366.542969 161.085938 367.085938 161.113281 C 367.640625 161.15625 368.183594 161.1875 368.8125 161.3125 C 368.96875 161.355469 369.140625 161.398438 369.351562 161.472656 C 369.46875 161.527344 369.582031 161.570312 369.738281 161.683594 C 369.796875 161.714844 369.9375 161.828125 370.023438 161.929688 C 370.109375 162.042969 370.238281 162.242188 370.28125 162.457031 C 370.378906 162.984375 370.167969 163.296875 370.050781 163.484375 C 369.9375 163.640625 369.824219 163.738281 369.738281 163.8125 C 369.539062 163.953125 369.394531 164.039062 369.253906 164.125 C 368.140625 164.679688 367.183594 164.9375 366.199219 165.238281 C 366.140625 165.253906 366.085938 165.265625 366.027344 165.28125 C 365.429688 165.980469 361.25 170.972656 360.121094 176.765625 C 360.878906 176.9375 361.5625 177.164062 362.191406 177.4375 C 362.832031 177.722656 363.375 178.050781 363.902344 178.335938 C 364.402344 178.664062 364.859375 178.949219 365.257812 179.207031 C 366.882812 180.234375 367.742188 180.789062 367.742188 180.789062 C 367.742188 180.789062 366.855469 180.289062 365.171875 179.335938 C 364.757812 179.105469 364.289062 178.835938 363.773438 178.550781 C 363.261719 178.308594 362.675781 177.992188 362.035156 177.738281 C 360.761719 177.292969 359.195312 176.953125 357.4375 176.980469 C 353.859375 177.179688 349.519531 177.4375 344.527344 177.722656 C 342.042969 177.863281 339.375 178.007812 336.578125 178.179688 C 333.78125 178.320312 330.859375 178.621094 327.789062 178.847656 C 321.667969 179.335938 315.035156 179.863281 308.015625 180.417969 C 304.503906 180.691406 300.894531 180.976562 297.214844 181.246094 C 295.375 181.390625 293.503906 181.53125 291.636719 181.675781 C 290.695312 181.746094 289.753906 181.816406 288.796875 181.875 C 287.855469 181.972656 286.898438 182.058594 285.941406 182.160156 C 278.296875 182.902344 270.390625 183.65625 262.371094 184.441406 C 254.339844 185.199219 246.179688 185.953125 238.015625 186.726562 C 229.855469 187.453125 221.695312 188.195312 213.660156 188.921875 C 205.644531 189.820312 197.753906 190.621094 190.105469 191.449219 C 182.472656 192.246094 175.082031 193.015625 168.078125 193.746094 C 161.070312 194.445312 154.449219 195.113281 148.328125 195.726562 C 142.207031 196.328125 136.601562 196.855469 131.621094 197.3125 C 126.640625 197.769531 122.304688 198.167969 118.738281 198.511719 C 115.171875 198.851562 112.359375 199.066406 110.433594 199.238281 C 108.523438 199.410156 107.496094 199.496094 107.496094 199.496094 C 107.496094 199.496094 108.523438 199.351562 110.417969 199.082031 C 112.316406 198.824219 115.113281 198.410156 118.667969 197.941406 C 119.636719 197.8125 120.664062 197.683594 121.75 197.539062 C 120.921875 195.828125 120.921875 194.316406 121.136719 193.21875 C 120.648438 193.304688 120.152344 193.386719 119.652344 193.488281 C 117.8125 193.789062 116.042969 194.214844 114.300781 194.558594 C 112.574219 194.929688 110.890625 195.285156 109.25 195.628906 C 102.730469 197.027344 97.007812 198.097656 92.398438 199.367188 C 87.761719 200.535156 84.09375 201.40625 81.597656 202.019531 C 79.101562 202.632812 77.773438 202.960938 77.773438 202.960938 C 77.773438 202.960938 79.085938 202.578125 81.542969 201.835938 C 84.011719 201.105469 87.605469 200.007812 92.214844 198.683594 C 96.792969 197.242188 102.472656 195.957031 108.949219 194.300781 C 110.578125 193.902344 112.246094 193.488281 113.972656 193.058594 C 115.699219 192.644531 117.453125 192.148438 119.292969 191.777344 C 122.960938 190.992188 126.8125 190.164062 130.835938 189.308594 C 132.847656 188.878906 134.902344 188.453125 136.988281 187.996094 C 138.042969 187.78125 139.097656 187.554688 140.152344 187.324219 C 141.222656 187.125 142.308594 186.925781 143.394531 186.710938 C 147.757812 185.910156 152.265625 185.070312 156.890625 184.214844 C 159.214844 183.785156 161.554688 183.359375 163.9375 182.914062 C 166.320312 182.53125 168.746094 182.132812 171.171875 181.730469 C 176.066406 180.933594 181.046875 180.121094 186.125 179.304688 C 191.203125 178.550781 196.382812 177.792969 201.605469 177.023438 C 204.230469 176.652344 206.855469 176.265625 209.511719 175.882812 C 212.148438 175.496094 214.816406 175.183594 217.5 174.824219 C 222.851562 174.140625 228.242188 173.457031 233.652344 172.757812 C 239.074219 172.113281 244.523438 171.472656 249.960938 170.832031 C 250.375 170.789062 250.773438 170.730469 251.1875 170.6875 C 241.46875 166.164062 209.453125 152.839844 174.695312 155.421875 C 157.660156 156.261719 140.652344 157.890625 123.761719 160.273438 L 87.863281 165.335938 C 66.445312 168.363281 47.640625 181.203125 37.070312 200.066406 C 36.140625 201.722656 35.269531 203.417969 34.472656 205.171875 L 34.171875 205.945312 C 35.183594 205.871094 36.242188 205.800781 37.238281 205.714844 L 73.523438 202.675781 C 75.691406 202.492188 77.875 202.804688 79.886719 203.605469 C 83.238281 204.917969 90.203125 206.601562 102.171875 205.128906 C 102.617188 205.074219 103.085938 205.015625 103.542969 204.960938 C 118.625 203.289062 334.398438 179.335938 367.742188 180.789062 C 367.742188 180.789062 334.269531 217.859375 308.957031 241.414062 C 303.050781 246.921875 295.289062 249.976562 287.210938 249.976562 C 243.253906 250.03125 91.230469 250.089844 9.160156 248.417969 C 9.160156 248.417969 9.03125 246.894531 9.019531 244.425781 C 9.019531 244.539062 9.019531 244.679688 9.019531 244.796875 L 8.976562 244.796875 C 7.847656 244.796875 6.765625 244.308594 6.023438 243.453125 C 5.28125 242.613281 4.9375 241.484375 5.09375 240.359375 " fill-opacity="1" fill-rule="nonzero"/></g></svg>